<?xml version="1.0" encoding="UTF-8" standalone="no"?>
<svg
   xmlns:dc="http://purl.org/dc/elements/1.1/"
   xmlns:cc="http://creativecommons.org/ns#"
   xmlns:rdf="http://www.w3.org/1999/02/22-rdf-syntax-ns#"
   xmlns:svg="http://www.w3.org/2000/svg"
   xmlns="http://www.w3.org/2000/svg"
   xmlns:sodipodi="http://sodipodi.sourceforge.net/DTD/sodipodi-0.dtd"
   xmlns:inkscape="http://www.inkscape.org/namespaces/inkscape"
   width="124.74062mm"
   height="78.156723mm"
   viewBox="0 0 124.74062 78.156716"
   version="1.1"
   id="svg8"
   inkscape:version="1.0.1 (3bc2e813f5, 2020-09-07)"
   sodipodi:docname="Scattered.svg">
  <defs
     id="defs2">
    <rect
       x="362.85715"
       y="89.202377"
       width="285.75"
       height="40.82143"
       id="rect867" />
    <clipPath
       clipPathUnits="userSpaceOnUse"
       id="clipPath876">
      <rect
         style="fill:none;fill-rule:evenodd;stroke:#ffffff;stroke-width:0;stroke-linecap:round;stroke-linejoin:round;stroke-miterlimit:4;stroke-dasharray:none;stroke-dashoffset:248.504;paint-order:stroke markers fill"
         id="rect878"
         width="158.49081"
         height="79.111778"
         x="-67.084656"
         y="2.9399648"
         ry="1.7008928"
         rx="1.3229166" />
    </clipPath>
    <clipPath
       clipPathUnits="userSpaceOnUse"
       id="clipPath870">
      <rect
         style="fill:#000000;fill-rule:evenodd;stroke:#ffffff;stroke-width:0;stroke-linecap:round;stroke-linejoin:round;stroke-miterlimit:4;stroke-dasharray:none;stroke-dashoffset:248.504;paint-order:stroke markers fill"
         id="rect872"
         width="158.561"
         height="40.443455"
         x="-67.128571"
         y="2.7214303" />
    </clipPath>
  </defs>
  <sodipodi:namedview
     id="base"
     pagecolor="#ffffff"
     bordercolor="#666666"
     borderopacity="1.0"
     inkscape:pageopacity="0.0"
     inkscape:pageshadow="2"
     inkscape:zoom="0.35"
     inkscape:cx="508.7419"
     inkscape:cy="-589.01594"
     inkscape:document-units="mm"
     inkscape:current-layer="g906"
     inkscape:document-rotation="0"
     showgrid="false"
     inkscape:snap-global="false"
     inkscape:window-width="1267"
     inkscape:window-height="730"
     inkscape:window-x="75"
     inkscape:window-y="0"
     inkscape:window-maximized="0" />
  <metadata
     id="metadata5">
    <rdf:RDF>
      <cc:Work
         rdf:about="">
        <dc:format>image/svg+xml</dc:format>
        <dc:type
           rdf:resource="http://purl.org/dc/dcmitype/StillImage" />
        <dc:title></dc:title>
      </cc:Work>
    </rdf:RDF>
  </metadata>
  <g
     inkscape:label="Layer 1"
     inkscape:groupmode="layer"
     id="layer1"
     transform="translate(-91.700292,-335.7429)">
    <text
       xml:space="preserve"
       id="text865"
       style="font-size:4.23333px;line-height:1.25;font-family:sans-serif;white-space:pre;shape-inside:url(#rect867);" />
    <g
       id="g906"
       transform="translate(5.3453905,-74.300929)">
      <path
         id="path1800"
         style="fill:none;fill-rule:evenodd;stroke:#ffffff;stroke-width:6.1;stroke-linecap:round;stroke-linejoin:bevel;stroke-miterlimit:4;stroke-dasharray:none;stroke-dashoffset:248.504;paint-order:stroke markers fill"
         d="m 117.03637,452.72014 a 15.35276,15.35276 0 0 0 -15.04755,12.68934 10.005168,10.005168 0 0 0 -2.578939,-0.33821 10.005168,10.005168 0 0 0 -10.00498,10.0052 10.005168,10.005168 0 0 0 8.52836,9.89554 c 0.14363,0.11166 0.32391,0.17854 0.52073,0.17854 h 32.454949 2.08415 c 0.27604,0 0.51978,-0.13103 0.67452,-0.33397 a 11.557696,11.557696 0 0 0 8.79909,-11.22356 11.557696,11.557696 0 0 0 -11.24031,-11.55328 15.35276,15.35276 0 0 0 -14.11762,-9.3196 15.35276,15.35276 0 0 0 -0.0724,0 z" />
      <path
         id="path1802"
         style="fill:none;fill-rule:evenodd;stroke:#ffffff;stroke-width:6.1;stroke-linecap:round;stroke-linejoin:bevel;stroke-miterlimit:4;stroke-dasharray:none;stroke-dashoffset:248.504;paint-order:stroke markers fill"
         d="m 172.78934,413.09388 a 19.58925,19.58925 0 0 1 19.19982,16.19088 12.766026,12.766026 0 0 1 3.29058,-0.43154 12.766026,12.766026 0 0 1 12.76578,12.76607 12.766026,12.766026 0 0 1 -10.8817,12.62614 c -0.18326,0.14248 -0.41329,0.22781 -0.66442,0.22781 h -41.41068 -2.65925 c -0.35221,0 -0.66321,-0.16719 -0.86065,-0.42613 a 14.746964,14.746964 0 0 1 -11.22714,-14.32062 14.746964,14.746964 0 0 1 14.342,-14.74133 19.58925,19.58925 0 0 1 18.01328,-11.89128 19.58925,19.58925 0 0 1 0.0924,0 z" />
    </g>
  </g>
</svg>
